# xmcd
#
# Track frame offsets:
#	150
#	29542
#	63391
#	96015
#	136931
#
# Disc length: 2730 seconds
#
# Revision: 0
# Processed by: cddbd v1.5.2PL0 Copyright (c) Steve Scherf et al.
# Submitted via: EZCDAudioConverter 2.1.7.1
#
DISCID=3d0aa805
DTITLE=Föllakzoid - II
DYEAR=1900
DGENRE=
TTITLE0=Trees
TTITLE1=9
TTITLE2=Rio
TTITLE3=99
TTITLE4=Pulsar
EXTD=
EXTT0=
EXTT1=
EXTT2=
EXTT3=
EXTT4=
PLAYORDER=
